# xmcd
#
# Track frame offsets:
#	150
#	13237
#	25774
#	39339
#	52125
#	63207
#	76168
#	89326
#	98965
#	111977
#	125072
#	138723
#	150692
#	162700
#	173494
#	185233
#	197620
#	208874
#	219465
#	230737
#	240155
#	249683
#	258930
#
# Disc length: 3603 seconds
#
# Revision: 1
# Processed by: cddbd v1.5.2PL0 Copyright (c) Steve Scherf et al.
# Submitted via: audiograbber 1.83.01
#
DISCID=4c0e1117
DTITLE=T-Bone Walker  - T-Bone Blues 1949-1954 CD4
DYEAR=1954
DGENRE=Blues 50´s
TTITLE0=I Got The Blues 
TTITLE1=Blues Is The Woman
TTITLE2=Here In The Dark
TTITLE3=Blue Mood 
TTITLE4=Every Time
TTITLE5=I Miss You Baby
TTITLE6=Lollie Lou 
TTITLE7=Party Girl 
TTITLE8=Love Is Just A Gamble 
TTITLE9=High Society
TTITLE10=Long Distance Blues
TTITLE11=Got No Use For You 
TTITLE12=Railroad Station Blues
TTITLE13=Vida Lee 
TTITLE14=My Baby Is Now On My Mind
TTITLE15=Bye Bye Baby 
TTITLE16=When The Sun Goes Down
TTITLE17=Pony Tail 
TTITLE18=Wanderin' Heart
TTITLE19=I'll Understand
TTITLE20=Hard Way
TTITLE21=Teen-Age Baby
TTITLE22=Strugglin' Blues 
EXTD=
EXTT0=
EXTT1=
EXTT2=
EXTT3=
EXTT4=
EXTT5=
EXTT6=
EXTT7=
EXTT8=
EXTT9=
EXTT10=
EXTT11=
EXTT12=
EXTT13=
EXTT14=
EXTT15=
EXTT16=
EXTT17=
EXTT18=
EXTT19=
EXTT20=
EXTT21=
EXTT22=
PLAYORDER=
